<mxfile host="app.diagrams.net" modified="2024-03-19T00:38:15.501Z" agent="Mozilla/5.0 (Windows NT 10.0; Win64; x64) AppleWebKit/537.36 (KHTML, like Gecko) Chrome/122.0.0.0 Safari/537.36" version="24.0.7" etag="1A0KpOH0LjH_eI0ROyq9" type="github">
  <diagram name="PÃ¡gina-1" id="VF9pn8ctg7HBFdFutHqc">
    <mxGraphModel>
      <root>
        <mxCell id="0" />
        <mxCell id="1" parent="0" />
      </root>
    </mxGraphModel>
  </diagram>
</mxfile>
